<svg width="18" height="19" viewBox="0 0 18 19" fill="none" xmlns="http://www.w3.org/2000/svg">
    <rect y="0.5" width="18" height="18" rx="4" fill="black" />
    <path
        d="M14.7485 12.9103C14.5331 13.3994 14.278 13.8496 13.9826 14.2635C13.5798 14.8278 13.25 15.2185 12.9959 15.4354C12.6019 15.7914 12.1798 15.9737 11.7278 15.9841C11.4033 15.9841 11.012 15.8934 10.5565 15.7093C10.0995 15.5261 9.6795 15.4354 9.29547 15.4354C8.89272 15.4354 8.46077 15.5261 7.99874 15.7093C7.53601 15.8934 7.16324 15.9893 6.87824 15.9988C6.44479 16.0169 6.01275 15.8294 5.5815 15.4354C5.30626 15.1994 4.96198 14.795 4.54955 14.2221C4.10705 13.6102 3.74325 12.9007 3.45824 12.0919C3.15301 11.2182 3 10.3722 3 9.55312C3 8.61489 3.2063 7.80568 3.61952 7.12756C3.94428 6.58288 4.37632 6.15321 4.91705 5.83779C5.45778 5.52236 6.04203 5.36163 6.67123 5.35134C7.01551 5.35134 7.46698 5.456 8.02802 5.66167C8.58748 5.86803 8.94671 5.97268 9.10421 5.97268C9.22196 5.97268 9.62102 5.85032 10.2975 5.60636C10.9373 5.38012 11.4772 5.28645 11.9195 5.32335C13.1181 5.4184 14.0186 5.88272 14.6175 6.71924C13.5455 7.35752 13.0152 8.2515 13.0258 9.39834C13.0355 10.2916 13.3652 11.035 14.0133 11.6252C14.3071 11.8992 14.6351 12.1109 15 12.2613C14.9209 12.4868 14.8373 12.7028 14.7485 12.9103ZM11.9996 2.28008C11.9996 2.98024 11.7393 3.63398 11.2204 4.23907C10.5943 4.95841 9.83699 5.37407 9.01574 5.30848C9.00528 5.22448 8.99921 5.13608 8.99921 5.04318C8.99921 4.37103 9.29697 3.65169 9.82574 3.06354C10.0897 2.76574 10.4255 2.51813 10.8326 2.32061C11.2389 2.12603 11.6232 2.01843 11.9846 2C11.9952 2.0936 11.9996 2.18721 11.9996 2.28007V2.28008Z"
        fill="white" />
</svg>
