<svg width="18" height="19" viewBox="0 0 18 19" fill="none" xmlns="http://www.w3.org/2000/svg">
    <rect y="0.5" width="18" height="18" rx="4" fill="#1877F2" />
    <path
        d="M16 9.04278C16 5.15316 12.866 2 9 2C5.134 2 2 5.15316 2 9.04278C2 12.558 4.5598 15.4717 7.90625 16V11.0786H6.12891V9.04278H7.90625V7.49117C7.90625 5.72607 8.9513 4.75109 10.5503 4.75109C11.3161 4.75109 12.1172 4.88864 12.1172 4.88864V6.62182H11.2345C10.3649 6.62182 10.0938 7.16471 10.0938 7.72167V9.04278H12.0352L11.7248 11.0786H10.0938V16C13.4402 15.4717 16 12.558 16 9.04278Z"
        fill="white" />
</svg>
